PathFileType	4	(X/Y/Z)	D:\TRACE\v60_Jaco2_6-2-23\JustBodyDRS_Motion3_1-platform.trc
DataRate	CameraRate	NumFrames	NumMarkers	Units	OrigDataRate	OrigDataStartFrame	OrigNumFrames
100.00	100.00	      54	5	mm	100.00	1	      7000
Frame#	Time	Left_Front			Right_Front			Left_Aft			Right_Aft			Post			
		X1	Y1	Z1	X2	Y2	Z2	X3	Y3	Z3	X4	Y4	Z4	X5	Y5	Z5	

1	0.000	-814.65179	128.34581	-611.88666	755.79260	125.61765	-588.81403	-746.13580	-73.60857	504.34753	668.71472	-92.36462	608.29089	-21.47837	1462.19324	-684.24188	
2	0.010	-814.64581	128.33917	-611.89435	755.76776	125.61284	-588.83960	-746.13324	-73.62820	504.38266	668.95941	-92.39430	608.35754	-21.51962	1462.17261	-684.24640	
3	0.020	-814.66284	128.34323	-611.91803	755.82166	125.61081	-588.80420	-746.13281	-73.57160	504.39093	668.76343	-92.37952	608.24066	-21.49417	1462.22058	-684.25385	
4	0.030	-814.63293	128.32677	-611.91669	755.76123	125.63473	-588.85242	-746.15869	-73.57266	504.33301	668.70447	-92.38166	608.28070	-21.45654	1462.21484	-684.25568	
5	0.040	-814.68195	128.36043	-611.89178	755.78015	125.63009	-588.83643	-746.16479	-73.58327	504.33292	668.72247	-92.36156	608.27716	-21.44713	1462.23254	-684.25458	
6	0.050	-814.68475	128.37543	-611.88385	755.79022	125.62770	-588.84155	-746.12939	-73.60403	504.38107	668.70526	-92.38438	608.26770	-21.48623	1462.22351	-684.26215	
7	0.060	-814.37152	128.06201	-611.37799	755.77258	125.61355	-588.81104	-746.13110	-73.62859	504.35660	668.71564	-92.37078	608.29773	-21.51891	1462.19128	-684.24500	
8	0.070	-814.37256	128.07086	-611.35590	755.75909	125.61151	-588.83472	-746.15851	-73.63007	504.36835	668.83307	-92.47687	608.33972	-21.50199	1462.18347	-684.25122	
9	0.080	-814.71014	128.42545	-611.84503	755.81519	125.61948	-588.81097	-746.14948	-73.57488	504.32516	668.74121	-92.33482	608.29340	-21.46316	1462.22241	-684.25519	
10	0.090	-814.68182	128.38852	-611.92328	755.79395	125.62955	-588.84338	-746.11884	-73.57338	504.29181	668.73883	-92.38744	608.25299	-21.46861	1462.22754	-684.25024	
11	0.100	-814.70886	128.40121	-611.89124	755.78448	125.62527	-588.85120	-746.13586	-73.56833	504.27859	668.73444	-92.32987	608.28815	-21.46996	1462.22559	-684.23358	
12	0.110	-814.69830	128.38263	-611.88861	755.75378	125.61643	-588.84851	-746.13141	-73.64606	504.37326	668.69147	-92.33130	608.33380	-21.48947	1462.23230	-684.24109	
13	0.120	-814.63824	128.32790	-611.92249	755.74658	125.62791	-588.84882	-746.14111	-73.62957	504.35516	668.70398	-92.38998	608.26141	-21.45652	1462.22949	-684.21619	
14	0.130	-814.68414	128.36673	-611.90399	755.77002	125.59546	-588.84210	-746.14331	-73.61843	504.37228	668.65906	-92.34365	608.34399	-21.44774	1462.18689	-684.24054	
15	0.140	-814.65753	128.32793	-611.89850	755.77618	125.62634	-588.83911	-746.14685	-73.60962	504.35733	668.61407	-92.39316	608.31787	-21.46485	1462.20325	-684.22968	
16	0.150	-814.67194	128.38113	-611.87250	755.79297	125.61005	-588.83533	-746.15222	-73.57523	504.32669	668.67529	-92.31952	608.34735	-21.48324	1462.24268	-684.24683	
17	0.160	-814.68152	128.37912	-611.87689	755.79681	125.60442	-588.81726	-746.15369	-73.58963	504.36484	668.65729	-92.34336	608.33466	-21.49925	1462.20068	-684.24792	
18	0.170	-814.67456	128.35886	-611.91077	755.76270	125.61622	-588.80927	-746.14789	-73.61562	504.35785	668.72345	-92.40726	608.26086	-21.51569	1462.19836	-684.24896	
19	0.180	-814.67816	128.36531	-611.88568	755.76440	125.60902	-588.81714	-746.12799	-73.60223	504.33356	668.76703	-92.33393	608.29608	-21.51940	1462.18091	-684.25494	
20	0.190	-814.63580	128.29570	-611.89764	755.77893	125.60958	-588.81989	-746.12384	-73.62690	504.33096	668.70825	-92.41059	608.25177	-21.50054	1462.14771	-684.23248	
21	0.200	-814.67285	128.35635	-611.90875	755.77002	125.62484	-588.83521	-746.13971	-73.60101	504.33246	668.76758	-92.35359	608.27283	-21.47228	1462.22876	-684.23260	
22	0.210	-814.64948	128.31718	-611.91040	755.76569	125.61885	-588.84119	-746.16656	-73.60903	504.32440	668.68939	-92.37025	608.29651	-21.53714	1462.23767	-684.22559	
23	0.220	-814.67126	128.37080	-611.87128	755.78430	125.58241	-588.81635	-746.14862	-73.57449	504.35355	668.71393	-92.34435	608.29498	-21.47563	1462.23694	-684.23383	
24	0.230	-814.68524	128.35736	-611.93219	755.76849	125.62300	-588.82727	-746.13586	-73.59212	504.34003	668.70026	-92.37307	608.27539	-21.44862	1462.20837	-684.21747	
25	0.240	-814.65582	128.33714	-611.91620	755.79034	125.61622	-588.83344	-746.14264	-73.58841	504.33115	668.75470	-92.37123	608.26184	-21.50496	1462.19824	-684.25739	
26	0.250	-814.72577	128.38980	-611.85992	755.75964	125.60252	-588.82800	-746.12683	-73.61795	504.34103	668.66113	-92.36221	608.31641	-21.45812	1462.18811	-684.20392	
27	0.260	-814.68610	128.35324	-611.88098	755.77734	125.63445	-588.82855	-746.13611	-73.60458	504.32117	668.72681	-92.32717	608.31262	-21.50700	1462.21545	-684.23871	
28	0.270	-814.37036	128.06773	-611.36517	755.76160	125.63242	-588.84735	-746.14410	-73.62285	504.36215	668.69855	-92.38896	608.26007	-21.52334	1462.18994	-684.26617	
29	0.280	-814.65509	128.34164	-611.88586	755.74640	125.59605	-588.86249	-746.13544	-73.60905	504.34766	668.71533	-92.35757	608.28839	-21.48322	1462.21289	-684.22675	
30	0.290	-814.66205	128.34572	-611.93280	755.76807	125.63876	-588.81177	-746.13202	-73.57360	504.31265	668.71277	-92.37659	608.27161	-21.47649	1462.19019	-684.22784	
31	0.300	-814.68848	128.35928	-611.91229	755.78729	125.60866	-588.84070	-746.13831	-73.58161	504.34723	668.74640	-92.33971	608.28186	-21.46696	1462.20300	-684.22412	
32	0.310	-814.67401	128.36800	-611.91962	755.77875	125.60439	-588.83655	-746.13983	-73.59284	504.32925	668.71979	-92.39041	608.25208	-21.50468	1462.21826	-684.23865	
33	0.320	-814.66620	128.37233	-611.90118	755.79785	125.62733	-588.81622	-746.14264	-73.60139	504.35907	668.72693	-92.34149	608.29883	-21.48729	1462.19067	-684.22925	
34	0.330	-814.66394	128.35373	-611.88690	755.76715	125.58298	-588.83435	-746.12744	-73.60735	504.32367	668.67535	-92.38879	608.27118	-21.51032	1462.21912	-684.23633	
35	0.340	-814.63824	128.32428	-611.92883	755.74017	125.58448	-588.84760	-746.13953	-73.63262	504.35486	668.73560	-92.37228	608.27222	-21.46621	1462.20703	-684.20947	
36	0.350	-814.65753	128.32101	-611.89307	755.78406	125.62405	-588.82770	-746.14404	-73.62970	504.36145	668.77112	-92.31861	608.29224	-21.51344	1462.22485	-684.25916	
37	0.360	-814.61218	128.30008	-611.92279	755.77887	125.63191	-588.81744	-746.12738	-73.59785	504.39120	668.67877	-92.37501	608.30457	-21.44992	1462.20239	-684.21545	
38	0.370	-814.68225	128.35519	-611.90967	755.74542	125.63136	-588.83289	-746.15155	-73.59665	504.33884	668.69904	-92.32770	608.32416	-21.47886	1462.20898	-684.23224	
39	0.380	-814.69147	128.37758	-611.87665	755.75757	125.60182	-588.86639	-746.14679	-73.60860	504.36929	668.69904	-92.35975	608.28766	-21.48425	1462.24548	-684.20355	
40	0.390	-814.68616	128.38747	-611.87695	755.78760	125.61189	-588.83380	-746.14355	-73.60826	504.34024	668.69568	-92.35777	608.30212	-21.47397	1462.21497	-684.23987	
41	0.400	-814.67737	128.36314	-611.87750	755.81299	125.64000	-588.81018	-746.12061	-73.60703	504.31516	668.71667	-92.36806	608.27917	-21.49688	1462.21509	-684.24963	
42	0.410	-814.62653	128.32283	-611.89819	755.78888	125.62392	-588.83838	-746.12372	-73.61127	504.36496	668.70599	-92.39239	608.25818	-21.49477	1462.22058	-684.22949	
43	0.420	-814.69067	128.38313	-611.85217	755.77917	125.58994	-588.81891	-746.12750	-73.58848	504.34552	668.72626	-92.34336	608.30298	-21.47428	1462.24585	-684.21082	
44	0.430	-814.72461	128.41307	-611.86188	755.77191	125.59528	-588.84283	-746.13220	-73.60611	504.37592	668.69720	-92.35860	608.29944	-21.49963	1462.18372	-684.25824	
45	0.440	-814.67407	128.34563	-611.88800	755.77185	125.64408	-588.83295	-746.14569	-73.59012	504.34198	668.64185	-92.40224	608.28278	-21.46694	1462.21790	-684.22174	
46	0.450	-814.43823	128.13741	-611.39923	755.74445	125.62600	-588.86017	-746.14862	-73.58382	504.33289	668.67371	-92.39171	608.29492	-21.47473	1462.23755	-684.24487	
47	0.460	-814.66138	128.35199	-611.91711	755.77417	125.63837	-588.84222	-746.14001	-73.60506	504.32553	668.77863	-92.33395	608.27063	-21.44456	1462.22119	-684.22461	
48	0.470	-814.66437	128.37413	-611.87659	755.76532	125.61144	-588.83966	-746.15143	-73.60029	504.35867	668.69666	-92.40493	608.25537	-21.48087	1462.19226	-684.23108	
49	0.480	-814.68982	128.38773	-611.88586	755.76367	125.60883	-588.83551	-746.13690	-73.63298	504.37408	668.64551	-92.39321	608.29248	-21.46158	1462.21448	-684.23175	
50	0.490	-814.65179	128.34836	-611.88434	755.78326	125.58884	-588.87067	-746.11212	-73.64216	504.39697	668.65637	-92.41831	608.28705	-21.52035	1462.17688	-684.26337	
51	0.500	-814.66833	128.36047	-611.88977	755.77618	125.62080	-588.83289	-746.16278	-73.63464	504.33649	668.68573	-92.35625	608.31073	-21.51003	1462.23584	-684.23645	
52	0.510	-814.71509	128.39871	-611.87354	755.77100	125.61629	-588.82111	-746.13275	-73.59045	504.37357	668.70959	-92.37679	608.28064	-21.48331	1462.20691	-684.26215	
53	0.520	-814.69672	128.37276	-611.91272	755.77032	125.62742	-588.81354	-746.11761	-73.62405	504.36523	668.69427	-92.36227	608.28796	-21.45444	1462.21155	-684.22479	
54	0.530	-814.64630	128.35890	-611.87164	755.79529	125.61510	-588.78522	-746.12604	-73.62987	504.35852	668.75421	-92.32911	608.28876	-21.51316	1462.18799	-684.24152	
